<?xml version="1.0" encoding="UTF-8" standalone="no"?>
<!-- Created with Inkscape (http://www.inkscape.org/) -->

<svg
   width="185.36574mm"
   height="107.44771mm"
   viewBox="0 0 185.36574 107.44771"
   version="1.1"
   id="svg5"
   inkscape:version="1.1.1 (c3084ef, 2021-09-22)"
   sodipodi:docname="g2.svg"
   xmlns:inkscape="http://www.inkscape.org/namespaces/inkscape"
   xmlns:sodipodi="http://sodipodi.sourceforge.net/DTD/sodipodi-0.dtd"
   xmlns="http://www.w3.org/2000/svg"
   xmlns:svg="http://www.w3.org/2000/svg">
  <sodipodi:namedview
     id="namedview7"
     pagecolor="#ffffff"
     bordercolor="#666666"
     borderopacity="1.0"
     inkscape:pageshadow="2"
     inkscape:pageopacity="0.0"
     inkscape:pagecheckerboard="0"
     inkscape:document-units="mm"
     showgrid="false"
     fit-margin-top="0"
     fit-margin-left="0"
     fit-margin-right="0"
     fit-margin-bottom="0"
     inkscape:zoom="0.50867705"
     inkscape:cx="-211.33252"
     inkscape:cy="368.60322"
     inkscape:window-width="1312"
     inkscape:window-height="793"
     inkscape:window-x="0"
     inkscape:window-y="25"
     inkscape:window-maximized="0"
     inkscape:current-layer="layer1" />
  <defs
     id="defs2">
    <clipPath
       clipPathUnits="userSpaceOnUse"
       id="clipPath41">
      <path
         d="m 12,261.3315 h 571 v 319.337 H 12 Z"
         id="path39" />
    </clipPath>
    <clipPath
       clipPathUnits="userSpaceOnUse"
       id="clipPath201">
      <path
         d="m 260.4379,299.3981 h 22.20556 V 531.2875 H 260.4379 Z"
         id="path199" />
    </clipPath>
    <clipPath
       clipPathUnits="userSpaceOnUse"
       id="clipPath213">
      <path
         d="m 12,261.3315 h 571 v 319.337 H 12 Z"
         id="path211" />
    </clipPath>
    <clipPath
       clipPathUnits="userSpaceOnUse"
       id="clipPath227">
      <path
         d="m 371.307,299.3981 h 22.20556 V 549.3163 H 371.307 Z"
         id="path225" />
    </clipPath>
    <clipPath
       clipPathUnits="userSpaceOnUse"
       id="clipPath239">
      <path
         d="m 12,261.3315 h 571 v 319.337 H 12 Z"
         id="path237" />
    </clipPath>
    <clipPath
       clipPathUnits="userSpaceOnUse"
       id="clipPath253">
      <path
         d="m 482.1233,299.3981 h 22.20556 V 451.0303 H 482.1233 Z"
         id="path251" />
    </clipPath>
    <clipPath
       clipPathUnits="userSpaceOnUse"
       id="clipPath265">
      <path
         d="m 12,261.3315 h 571 v 319.337 H 12 Z"
         id="path263" />
    </clipPath>
    <clipPath
       clipPathUnits="userSpaceOnUse"
       id="clipPath281">
      <path
         d="m 126.957,262.8659 h 72.11747 v 35.15019 H 126.957 Z"
         id="path279" />
    </clipPath>
    <clipPath
       clipPathUnits="userSpaceOnUse"
       id="clipPath301">
      <path
         d="m 244.5386,275.2202 h 54.52581 v 17.57509 H 244.5386 Z"
         id="path299" />
    </clipPath>
    <clipPath
       clipPathUnits="userSpaceOnUse"
       id="clipPath315">
      <path
         d="m 350.352,262.8659 h 64.30165 v 35.15015 H 350.352 Z"
         id="path313" />
    </clipPath>
    <clipPath
       clipPathUnits="userSpaceOnUse"
       id="clipPath335">
      <path
         d="m 455.571,262.8659 h 76.08687 v 35.15018 H 455.571 Z"
         id="path333" />
    </clipPath>
  </defs>
  <g
     inkscape:label="Layer 1"
     inkscape:groupmode="layer"
     id="layer1"
     transform="translate(-5.1034726,-33.13954)">
    <g
       id="g31"
       inkscape:label="g2"
       transform="matrix(0.35277777,0,0,-0.35277777,-3.169947,233.77726)">
      <g
         id="g33" />
      <g
         id="g35">
        <g
           id="g37"
           clip-path="url(#clipPath41)">
          <g
             id="g43"
             transform="matrix(1.057407,0,0,1.057407,12,261.3315)">
            <path
               d="M 88.2,36 H 507.5"
               style="fill:none;stroke:#000000;stroke-width:0.063;stroke-linecap:butt;stroke-linejoin:miter;stroke-miterlimit:3.8;stroke-dasharray:0.5, 1;stroke-dashoffset:0;stroke-opacity:1"
               id="path45" />
          </g>
          <g
             id="g47"
             transform="matrix(1.057407,0,0,1.057407,12,261.3315)">
            <path
               d="m 88.2,36 h 3.15 m 416.15,0 h -3.15"
               style="fill:none;stroke:#000000;stroke-width:0.25;stroke-linecap:butt;stroke-linejoin:miter;stroke-miterlimit:3.8;stroke-dasharray:none;stroke-opacity:1"
               id="path49" />
          </g>
          <g
             id="g51"
             transform="matrix(1.057407,0,0,1.057407,12,261.3315)">
            <text
               transform="matrix(1,0,0,-1,68.4,30)"
               style="font-variant:normal;font-weight:normal;font-size:18px;font-family:Times;-inkscape-font-specification:Times-Roman;writing-mode:lr-tb;fill:#000000;fill-opacity:1;fill-rule:nonzero;stroke:none"
               id="text55"><tspan
                 x="0"
                 y="0"
                 id="tspan53">0</tspan></text>
          </g>
          <g
             id="g57"
             transform="matrix(1.057407,0,0,1.057407,12,261.3315)" />
          <g
             id="g59"
             transform="matrix(1.057407,0,0,1.057407,12,261.3315)">
            <path
               d="M 88.2,71.5 H 507.5"
               style="fill:none;stroke:#000000;stroke-width:0.063;stroke-linecap:butt;stroke-linejoin:miter;stroke-miterlimit:3.8;stroke-dasharray:0.5, 1;stroke-dashoffset:0;stroke-opacity:1"
               id="path61" />
          </g>
          <g
             id="g63"
             transform="matrix(1.057407,0,0,1.057407,12,261.3315)">
            <path
               d="m 88.2,71.5 h 3.15 m 416.15,0 h -3.15"
               style="fill:none;stroke:#000000;stroke-width:0.25;stroke-linecap:butt;stroke-linejoin:miter;stroke-miterlimit:3.8;stroke-dasharray:none;stroke-opacity:1"
               id="path65" />
          </g>
          <g
             id="g67"
             transform="matrix(1.057407,0,0,1.057407,12,261.3315)">
            <text
               transform="matrix(1,0,0,-1,59.4,65.5)"
               style="font-variant:normal;font-weight:normal;font-size:18px;font-family:Times;-inkscape-font-specification:Times-Roman;writing-mode:lr-tb;fill:#000000;fill-opacity:1;fill-rule:nonzero;stroke:none"
               id="text71"><tspan
                 x="0 9"
                 y="0"
                 sodipodi:role="line"
                 id="tspan69">50</tspan></text>
          </g>
          <g
             id="g73"
             transform="matrix(1.057407,0,0,1.057407,12,261.3315)" />
          <g
             id="g75"
             transform="matrix(1.057407,0,0,1.057407,12,261.3315)">
            <path
               d="M 88.2,106.95 H 507.5"
               style="fill:none;stroke:#000000;stroke-width:0.063;stroke-linecap:butt;stroke-linejoin:miter;stroke-miterlimit:3.8;stroke-dasharray:0.5, 1;stroke-dashoffset:0;stroke-opacity:1"
               id="path77" />
          </g>
          <g
             id="g79"
             transform="matrix(1.057407,0,0,1.057407,12,261.3315)">
            <path
               d="m 88.2,106.95 h 3.15 m 416.15,0 h -3.15"
               style="fill:none;stroke:#000000;stroke-width:0.25;stroke-linecap:butt;stroke-linejoin:miter;stroke-miterlimit:3.8;stroke-dasharray:none;stroke-opacity:1"
               id="path81" />
          </g>
          <g
             id="g83"
             transform="matrix(1.057407,0,0,1.057407,12,261.3315)">
            <text
               transform="matrix(1,0,0,-1,50.4,100.95)"
               style="font-variant:normal;font-weight:normal;font-size:18px;font-family:Times;-inkscape-font-specification:Times-Roman;writing-mode:lr-tb;fill:#000000;fill-opacity:1;fill-rule:nonzero;stroke:none"
               id="text87"><tspan
                 x="0 9 18"
                 y="0"
                 sodipodi:role="line"
                 id="tspan85">100</tspan></text>
          </g>
          <g
             id="g89"
             transform="matrix(1.057407,0,0,1.057407,12,261.3315)" />
          <g
             id="g91"
             transform="matrix(1.057407,0,0,1.057407,12,261.3315)">
            <path
               d="M 88.2,142.45 H 507.5"
               style="fill:none;stroke:#000000;stroke-width:0.063;stroke-linecap:butt;stroke-linejoin:miter;stroke-miterlimit:3.8;stroke-dasharray:0.5, 1;stroke-dashoffset:0;stroke-opacity:1"
               id="path93" />
          </g>
          <g
             id="g95"
             transform="matrix(1.057407,0,0,1.057407,12,261.3315)">
            <path
               d="m 88.2,142.45 h 3.15 m 416.15,0 h -3.15"
               style="fill:none;stroke:#000000;stroke-width:0.25;stroke-linecap:butt;stroke-linejoin:miter;stroke-miterlimit:3.8;stroke-dasharray:none;stroke-opacity:1"
               id="path97" />
          </g>
          <g
             id="g99"
             transform="matrix(1.057407,0,0,1.057407,12,261.3315)">
            <text
               transform="matrix(1,0,0,-1,50.4,136.45)"
               style="font-variant:normal;font-weight:normal;font-size:18px;font-family:Times;-inkscape-font-specification:Times-Roman;writing-mode:lr-tb;fill:#000000;fill-opacity:1;fill-rule:nonzero;stroke:none"
               id="text103"><tspan
                 x="0 9 18"
                 y="0"
                 sodipodi:role="line"
                 id="tspan101">150</tspan></text>
          </g>
          <g
             id="g105"
             transform="matrix(1.057407,0,0,1.057407,12,261.3315)" />
          <g
             id="g107"
             transform="matrix(1.057407,0,0,1.057407,12,261.3315)">
            <path
               d="M 88.2,177.9 H 507.5"
               style="fill:none;stroke:#000000;stroke-width:0.063;stroke-linecap:butt;stroke-linejoin:miter;stroke-miterlimit:3.8;stroke-dasharray:0.5, 1;stroke-dashoffset:0;stroke-opacity:1"
               id="path109" />
          </g>
          <g
             id="g111"
             transform="matrix(1.057407,0,0,1.057407,12,261.3315)">
            <path
               d="m 88.2,177.9 h 3.15 m 416.15,0 h -3.15"
               style="fill:none;stroke:#000000;stroke-width:0.25;stroke-linecap:butt;stroke-linejoin:miter;stroke-miterlimit:3.8;stroke-dasharray:none;stroke-opacity:1"
               id="path113" />
          </g>
          <g
             id="g115"
             transform="matrix(1.057407,0,0,1.057407,12,261.3315)">
            <text
               transform="matrix(1,0,0,-1,50.4,171.9)"
               style="font-variant:normal;font-weight:normal;font-size:18px;font-family:Times;-inkscape-font-specification:Times-Roman;writing-mode:lr-tb;fill:#000000;fill-opacity:1;fill-rule:nonzero;stroke:none"
               id="text119"><tspan
                 x="0 9 18"
                 y="0"
                 sodipodi:role="line"
                 id="tspan117">200</tspan></text>
          </g>
          <g
             id="g121"
             transform="matrix(1.057407,0,0,1.057407,12,261.3315)" />
          <g
             id="g123"
             transform="matrix(1.057407,0,0,1.057407,12,261.3315)">
            <path
               d="M 88.2,213.4 H 507.5"
               style="fill:none;stroke:#000000;stroke-width:0.063;stroke-linecap:butt;stroke-linejoin:miter;stroke-miterlimit:3.8;stroke-dasharray:0.5, 1;stroke-dashoffset:0;stroke-opacity:1"
               id="path125" />
          </g>
          <g
             id="g127"
             transform="matrix(1.057407,0,0,1.057407,12,261.3315)">
            <path
               d="m 88.2,213.4 h 3.15 m 416.15,0 h -3.15"
               style="fill:none;stroke:#000000;stroke-width:0.25;stroke-linecap:butt;stroke-linejoin:miter;stroke-miterlimit:3.8;stroke-dasharray:none;stroke-opacity:1"
               id="path129" />
          </g>
          <g
             id="g131"
             transform="matrix(1.057407,0,0,1.057407,12,261.3315)">
            <text
               transform="matrix(1,0,0,-1,50.4,207.4)"
               style="font-variant:normal;font-weight:normal;font-size:18px;font-family:Times;-inkscape-font-specification:Times-Roman;writing-mode:lr-tb;fill:#000000;fill-opacity:1;fill-rule:nonzero;stroke:none"
               id="text135"><tspan
                 x="0 9 18"
                 y="0"
                 sodipodi:role="line"
                 id="tspan133">250</tspan></text>
          </g>
          <g
             id="g137"
             transform="matrix(1.057407,0,0,1.057407,12,261.3315)" />
          <g
             id="g139"
             transform="matrix(1.057407,0,0,1.057407,12,261.3315)">
            <path
               d="M 88.2,248.85 H 507.5"
               style="fill:none;stroke:#000000;stroke-width:0.063;stroke-linecap:butt;stroke-linejoin:miter;stroke-miterlimit:3.8;stroke-dasharray:0.5, 1;stroke-dashoffset:0;stroke-opacity:1"
               id="path141" />
          </g>
          <g
             id="g143"
             transform="matrix(1.057407,0,0,1.057407,12,261.3315)">
            <path
               d="m 88.2,248.85 h 3.15 m 416.15,0 h -3.15"
               style="fill:none;stroke:#000000;stroke-width:0.25;stroke-linecap:butt;stroke-linejoin:miter;stroke-miterlimit:3.8;stroke-dasharray:none;stroke-opacity:1"
               id="path145" />
          </g>
          <g
             id="g147"
             transform="matrix(1.057407,0,0,1.057407,12,261.3315)">
            <text
               transform="matrix(1,0,0,-1,50.4,242.85)"
               style="font-variant:normal;font-weight:normal;font-size:18px;font-family:Times;-inkscape-font-specification:Times-Roman;writing-mode:lr-tb;fill:#000000;fill-opacity:1;fill-rule:nonzero;stroke:none"
               id="text151"><tspan
                 x="0 9 18"
                 y="0"
                 sodipodi:role="line"
                 id="tspan149">300</tspan></text>
          </g>
          <g
             id="g153"
             transform="matrix(1.057407,0,0,1.057407,12,261.3315)" />
          <g
             id="g155"
             transform="matrix(1.057407,0,0,1.057407,12,261.3315)">
            <path
               d="M 88.2,284.35 H 507.5"
               style="fill:none;stroke:#000000;stroke-width:0.063;stroke-linecap:butt;stroke-linejoin:miter;stroke-miterlimit:3.8;stroke-dasharray:0.5, 1;stroke-dashoffset:0;stroke-opacity:1"
               id="path157" />
          </g>
          <g
             id="g159"
             transform="matrix(1.057407,0,0,1.057407,12,261.3315)">
            <path
               d="m 88.2,284.35 h 3.15 m 416.15,0 h -3.15"
               style="fill:none;stroke:#000000;stroke-width:0.25;stroke-linecap:butt;stroke-linejoin:miter;stroke-miterlimit:3.8;stroke-dasharray:none;stroke-opacity:1"
               id="path161" />
          </g>
          <g
             id="g163"
             transform="matrix(1.057407,0,0,1.057407,12,261.3315)">
            <text
               transform="matrix(1,0,0,-1,50.4,278.35)"
               style="font-variant:normal;font-weight:normal;font-size:18px;font-family:Times;-inkscape-font-specification:Times-Roman;writing-mode:lr-tb;fill:#000000;fill-opacity:1;fill-rule:nonzero;stroke:none"
               id="text167"><tspan
                 x="0 9 18"
                 y="0"
                 sodipodi:role="line"
                 id="tspan165">350</tspan></text>
          </g>
          <g
             id="g169"
             transform="matrix(1.057407,0,0,1.057407,12,261.3315)">
            <path
               d="m 172.05,36 v 3.15 m 0,245.2 V 281.2 M 255.9,36 v 3.15 m 0,245.2 V 281.2 M 339.8,36 v 3.15 m 0,245.2 V 281.2 M 423.65,36 v 3.15 m 0,245.2 v -3.15"
               style="fill:none;stroke:#000000;stroke-width:0.25;stroke-linecap:butt;stroke-linejoin:miter;stroke-miterlimit:3.8;stroke-dasharray:none;stroke-opacity:1"
               id="path171" />
          </g>
          <g
             id="g173"
             transform="matrix(1.057407,0,0,1.057407,12,261.3315)">
            <path
               d="M 88.2,36 H 507.5 V 284.35 H 88.2 Z"
               style="fill:none;stroke:#000000;stroke-width:0.5;stroke-linecap:butt;stroke-linejoin:miter;stroke-miterlimit:3.8;stroke-dasharray:none;stroke-opacity:1"
               id="path175" />
          </g>
          <g
             id="g177"
             transform="matrix(1.057407,0,0,1.057407,12,261.3315)" />
          <g
             id="g179"
             transform="matrix(1.057407,0,0,1.057407,12,261.3315)">
            <text
               transform="matrix(0,1,1,0,23.1,82.4371)"
               style="font-variant:normal;font-weight:normal;font-size:18px;font-family:Times;-inkscape-font-specification:Times-Roman;writing-mode:lr-tb;fill:#000000;fill-opacity:1;fill-rule:nonzero;stroke:none"
               id="text183"><tspan
                 x="0 10.998 18.99 23.993999 31.986 40.986 48.978001 57.978001 62.478001 68.472 73.475998 82.475998 86.975998 95.975998 103.968 112.968 121.968 128.97 136.96201 144.95399 149.45399"
                 y="0"
                 sodipodi:role="line"
                 id="tspan181">Latency (in nanosec.)</tspan></text>
          </g>
          <g
             id="g185"
             transform="matrix(1.057407,0,0,1.057407,12,261.3315)" />
          <path
             d="m 149.6216,299.3981 h 22.20556 v 99.07907 H 149.6216 Z"
             style="fill:#000000;fill-opacity:1;fill-rule:nonzero;stroke:none"
             id="path187" />
          <g
             id="g189"
             transform="matrix(1.057407,0,0,1.057407,12,261.3315)">
            <path
               d="m 130.15,36 h 20.95 v 93.65 h -20.95 z"
               style="fill:none;stroke:#000000;stroke-width:0.25;stroke-linecap:butt;stroke-linejoin:miter;stroke-miterlimit:3.8;stroke-dasharray:none;stroke-opacity:1"
               id="path191" />
          </g>
          <path
             d="m 260.4379,299.3981 h 22.20556 V 531.2875 H 260.4379 Z"
             style="fill:#ffffff;fill-opacity:1;fill-rule:nonzero;stroke:none"
             id="path193" />
        </g>
      </g>
      <g
         id="g195">
        <g
           id="g197"
           clip-path="url(#clipPath201)">
          <g
             id="g203"
             transform="matrix(1.057407,0,0,1.057407,12,261.3315)">
            <path
               d="m 234.95,36 h 21 v 219.3 h -21 z M 245.45,-10.128 89.672,145.65 M 248.278,-7.299 92.501,148.478 M 251.107,-4.471 95.329,151.307 M 253.935,-1.643 98.157,154.135 M 256.764,1.186 100.986,156.964 M 259.592,4.014 103.814,159.792 M 262.421,6.843 106.643,162.621 M 265.249,9.671 109.471,165.449 M 268.077,12.5 112.3,168.277 M 270.906,15.328 115.128,171.106 M 273.734,18.156 117.956,173.934 M 276.563,20.985 120.785,176.763 M 279.391,23.813 123.613,179.591 M 282.22,26.642 126.442,182.42 M 285.048,29.47 129.27,185.248 M 287.876,32.299 132.099,188.076 M 290.705,35.127 134.927,190.905 M 293.533,37.955 137.755,193.733 M 296.362,40.784 140.584,196.562 M 299.19,43.612 143.412,199.39 M 302.019,46.441 146.241,202.219 M 304.847,49.269 149.069,205.047 M 307.675,52.098 151.898,207.875 M 310.504,54.926 154.726,210.704 M 313.332,57.754 157.554,213.532 M 316.161,60.583 160.383,216.361 M 318.989,63.411 163.211,219.189 M 321.818,66.24 166.04,222.018 M 324.646,69.068 168.868,224.846 M 327.474,71.897 171.697,227.674 M 330.303,74.725 174.525,230.503 M 333.131,77.553 177.353,233.331 M 335.96,80.382 180.182,236.16 M 338.788,83.21 183.01,238.988 M 341.617,86.039 185.839,241.817 M 344.445,88.867 188.667,244.645 M 347.273,91.696 191.496,247.473 M 350.102,94.524 194.324,250.302 M 352.93,97.352 197.152,253.13 M 355.759,100.181 199.981,255.959 M 358.587,103.009 202.809,258.787 M 361.415,105.838 205.638,261.616 M 364.244,108.666 208.466,264.444 M 367.072,111.495 211.294,267.272 M 369.901,114.323 214.123,270.101 M 372.729,117.151 216.951,272.929 M 375.558,119.98 219.78,275.758 M 378.386,122.808 222.608,278.586 M 381.215,125.637 225.437,281.414 M 384.043,128.465 228.265,284.243 M 386.871,131.293 231.093,287.071 M 389.7,134.122 233.922,289.9 M 392.528,136.95 236.75,292.728 M 395.357,139.779 239.579,295.557 M 398.185,142.607 242.407,298.385 M 401.013,145.436 245.236,301.214 M 403.842,148.264 248.064,304.042"
               style="fill:none;stroke:#000000;stroke-width:0.125;stroke-linecap:butt;stroke-linejoin:miter;stroke-miterlimit:3.8;stroke-dasharray:none;stroke-opacity:1"
               id="path205" />
          </g>
        </g>
      </g>
      <g
         id="g207">
        <g
           id="g209"
           clip-path="url(#clipPath213)">
          <g
             id="g215"
             transform="matrix(1.057407,0,0,1.057407,12,261.3315)">
            <path
               d="M 234.95,36 H 255.9 V 255.25 H 234.95 Z"
               style="fill:none;stroke:#000000;stroke-width:0.25;stroke-linecap:butt;stroke-linejoin:miter;stroke-miterlimit:3.8;stroke-dasharray:none;stroke-opacity:1"
               id="path217" />
          </g>
          <path
             d="m 371.307,299.3981 h 22.20556 V 549.3163 H 371.307 Z"
             style="fill:#ffffff;fill-opacity:1;fill-rule:nonzero;stroke:none"
             id="path219" />
        </g>
      </g>
      <g
         id="g221">
        <g
           id="g223"
           clip-path="url(#clipPath227)">
          <g
             id="g229"
             transform="matrix(1.057407,0,0,1.057407,12,261.3315)">
            <path
               d="m 339.8,36 h 21 v 236.35 h -21 z M 182.517,154.175 350.3,321.958 M 185.345,151.347 353.128,319.13 M 188.174,148.518 355.957,316.301 M 191.002,145.69 358.785,313.473 M 193.831,142.861 361.614,310.644 M 196.659,140.033 364.442,307.816 M 199.487,137.204 367.271,304.987 M 202.316,134.376 370.099,302.159 M 205.144,131.548 372.927,299.331 M 207.973,128.719 375.756,296.502 M 210.801,125.891 378.584,293.674 M 213.63,123.062 381.413,290.845 M 216.458,120.234 384.241,288.017 M 219.286,117.405 387.07,285.189 M 222.115,114.577 389.898,282.36 M 224.943,111.749 392.726,279.532 M 227.772,108.92 395.555,276.703 M 230.6,106.092 398.383,273.875 M 233.429,103.263 401.212,271.046 M 236.257,100.435 404.04,268.218 M 239.085,97.606 406.869,265.39 M 241.914,94.778 409.697,262.561 M 244.742,91.95 412.525,259.733 M 247.571,89.121 415.354,256.904 M 250.399,86.293 418.182,254.076 M 253.228,83.464 421.011,251.247 M 256.056,80.636 423.839,248.419 M 258.884,77.807 426.668,245.591 M 261.713,74.979 429.496,242.762 M 264.541,72.151 432.324,239.934 M 267.37,69.322 435.153,237.105 M 270.198,66.494 437.981,234.277 M 273.027,63.665 440.81,231.448 M 275.855,60.837 443.638,228.62 M 278.683,58.008 446.466,225.792 M 281.512,55.18 449.295,222.963 M 284.34,52.352 452.123,220.135 M 287.169,49.523 454.952,217.306 M 289.997,46.695 457.78,214.478 M 292.826,43.866 460.609,211.649 M 295.654,41.038 463.437,208.821 M 298.482,38.209 466.266,205.993 M 301.311,35.381 469.094,203.164 M 304.139,32.553 471.922,200.336 M 306.968,29.724 474.751,197.507 M 309.796,26.896 477.579,194.679 M 312.625,24.067 480.408,191.85 M 315.453,21.239 483.236,189.022 M 318.281,18.41 486.064,186.194 M 321.11,15.582 488.893,183.365 M 323.938,12.754 491.721,180.537 M 326.767,9.925 494.55,177.708 M 329.595,7.097 497.378,174.88 M 332.424,4.268 500.207,172.051 M 335.252,1.44 503.035,169.223 M 338.08,-1.389 505.863,166.395 M 340.909,-4.217 508.692,163.566 M 343.737,-7.045 511.52,160.738 M 346.566,-9.874 514.349,157.909 M 349.394,-12.702 517.177,155.081 M 352.223,-15.531 520.006,152.252"
               style="fill:none;stroke:#000000;stroke-width:0.125;stroke-linecap:butt;stroke-linejoin:miter;stroke-miterlimit:3.8;stroke-dasharray:none;stroke-opacity:1"
               id="path231" />
          </g>
        </g>
      </g>
      <g
         id="g233">
        <g
           id="g235"
           clip-path="url(#clipPath239)">
          <g
             id="g241"
             transform="matrix(1.057407,0,0,1.057407,12,261.3315)">
            <path
               d="m 339.8,36 h 20.95 V 272.3 H 339.8 Z"
               style="fill:none;stroke:#000000;stroke-width:0.25;stroke-linecap:butt;stroke-linejoin:miter;stroke-miterlimit:3.8;stroke-dasharray:none;stroke-opacity:1"
               id="path243" />
          </g>
          <path
             d="m 482.1233,299.3981 h 22.20556 V 451.0303 H 482.1233 Z"
             style="fill:#ffffff;fill-opacity:1;fill-rule:nonzero;stroke:none"
             id="path245" />
        </g>
      </g>
      <g
         id="g247">
        <g
           id="g249"
           clip-path="url(#clipPath253)">
          <g
             id="g255"
             transform="matrix(1.057407,0,0,1.057407,12,261.3315)">
            <path
               d="m 444.6,36 h 21 v 143.4 h -21 z M 428.576,8.711 356.111,134.224 M 430.308,9.711 357.843,135.224 M 432.04,10.711 359.575,136.224 M 433.772,11.711 361.307,137.224 M 435.504,12.711 363.04,138.224 M 437.236,13.711 364.772,139.224 M 438.968,14.711 366.504,140.224 M 440.7,15.711 368.236,141.224 M 442.432,16.711 369.968,142.224 M 444.165,17.711 371.7,143.224 M 445.897,18.711 373.432,144.224 M 447.629,19.711 375.164,145.224 M 449.361,20.711 376.896,146.224 M 451.093,21.711 378.628,147.224 M 452.825,22.711 380.36,148.224 M 454.557,23.711 382.092,149.224 M 456.289,24.711 383.824,150.224 M 458.021,25.711 385.556,151.224 M 459.753,26.711 387.288,152.224 M 461.485,27.711 389.02,153.224 M 463.217,28.711 390.752,154.224 M 464.949,29.711 392.484,155.224 M 466.681,30.711 394.216,156.224 M 468.413,31.711 395.948,157.224 M 470.145,32.711 397.681,158.224 M 471.877,33.711 399.413,159.224 M 473.609,34.711 401.145,160.224 M 475.341,35.711 402.877,161.224 M 477.073,36.711 404.609,162.224 M 478.806,37.711 406.341,163.224 M 480.538,38.711 408.073,164.224 M 482.27,39.711 409.805,165.224 M 484.002,40.711 411.537,166.224 M 485.734,41.711 413.269,167.224 M 487.466,42.711 415.001,168.224 M 489.198,43.711 416.733,169.224 M 490.93,44.711 418.465,170.224 M 492.662,45.711 420.197,171.224 M 494.394,46.711 421.929,172.224 M 496.126,47.711 423.661,173.224 M 497.858,48.711 425.393,174.224 M 499.59,49.711 427.125,175.224 M 501.322,50.711 428.857,176.224 M 503.054,51.711 430.589,177.224 M 504.786,52.711 432.322,178.224 M 506.518,53.711 434.054,179.224 M 508.25,54.711 435.786,180.224 M 509.982,55.711 437.518,181.224 M 511.715,56.711 439.25,182.224 M 513.447,57.711 440.982,183.224 M 515.179,58.711 442.714,184.224 M 516.911,59.711 444.446,185.224 M 518.643,60.711 446.178,186.224 M 520.375,61.711 447.91,187.224 M 522.107,62.711 449.642,188.224 M 523.839,63.711 451.374,189.224 M 525.571,64.711 453.106,190.224 M 527.303,65.711 454.838,191.224 M 529.035,66.711 456.57,192.224 M 530.767,67.711 458.302,193.224 M 532.499,68.711 460.034,194.224 M 534.231,69.711 461.766,195.224 M 535.963,70.711 463.498,196.224 M 537.695,71.711 465.23,197.224 M 539.427,72.711 466.963,198.224 M 541.159,73.711 468.695,199.224 M 542.891,74.711 470.427,200.224 M 544.623,75.711 472.159,201.224 M 546.356,76.711 473.891,202.224 M 548.088,77.711 475.623,203.224 M 549.82,78.711 477.355,204.224 M 551.552,79.711 479.087,205.224 M 553.284,80.711 480.819,206.224 M 555.016,81.711 482.551,207.224"
               style="fill:none;stroke:#000000;stroke-width:0.125;stroke-linecap:butt;stroke-linejoin:miter;stroke-miterlimit:3.8;stroke-dasharray:none;stroke-opacity:1"
               id="path257" />
          </g>
        </g>
      </g>
      <g
         id="g259">
        <g
           id="g261"
           clip-path="url(#clipPath265)">
          <g
             id="g267"
             transform="matrix(1.057407,0,0,1.057407,12,261.3315)">
            <path
               d="m 444.6,36 h 20.95 V 179.35 H 444.6 Z"
               style="fill:none;stroke:#000000;stroke-width:0.25;stroke-linecap:butt;stroke-linejoin:miter;stroke-miterlimit:3.8;stroke-dasharray:none;stroke-opacity:1"
               id="path269" />
          </g>
          <g
             id="g271"
             transform="matrix(1.057407,0,0,1.057407,12,261.3315)">
            <path
               d="M 88.2,36 H 507.5 V 284.35 H 88.2 Z"
               style="fill:none;stroke:#000000;stroke-width:0.5;stroke-linecap:butt;stroke-linejoin:miter;stroke-miterlimit:3.8;stroke-dasharray:none;stroke-opacity:1"
               id="path273" />
          </g>
        </g>
      </g>
      <g
         id="g275">
        <g
           id="g277"
           clip-path="url(#clipPath281)">
          <g
             id="g283"
             transform="matrix(1.057408,0,0,-1.057408,12,300.3522)">
            <text
               transform="translate(126.979,14.45111)"
               style="font-variant:normal;font-weight:normal;font-size:14.6168px;font-family:'Times New Roman';-inkscape-font-specification:TimesNewRomanPSMT;writing-mode:lr-tb;fill:#000000;fill-opacity:1;fill-rule:nonzero;stroke:none"
               id="text287"><tspan
                 x="0 9.7493925 16.236319 21.925171 25.985712 32.472637"
                 y="0"
                 sodipodi:role="line"
                 id="tspan285">Basic</tspan></text>
          </g>
          <g
             id="g289"
             transform="matrix(1.057408,0,0,-1.057408,12,300.3522)">
            <text
               transform="translate(109.1148,31.07204)"
               style="font-variant:normal;font-weight:normal;font-size:14.6168px;font-family:'Times New Roman';-inkscape-font-specification:TimesNewRomanPSMT;writing-mode:lr-tb;fill:#000000;fill-opacity:1;fill-rule:nonzero;stroke:none"
               id="text293"><tspan
                 x="0 8.1298532 15.438243 20.305632 30.86187 37.348797 42.216183 49.524574 53.585117 60.893505"
                 y="0"
                 sodipodi:role="line"
                 id="tspan291">Forwarding</tspan></text>
          </g>
        </g>
      </g>
      <g
         id="g295">
        <g
           id="g297"
           clip-path="url(#clipPath301)">
          <g
             id="g303"
             transform="matrix(1.057407,0,0,-1.057407,12,307.0848)">
            <text
               transform="translate(220.1311,26.13468)"
               style="font-variant:normal;font-weight:normal;font-size:14.6168px;font-family:'Times New Roman';-inkscape-font-specification:TimesNewRomanPSMT;writing-mode:lr-tb;fill:#000000;fill-opacity:1;fill-rule:nonzero;stroke:none"
               id="text307"><tspan
                 x="0 8.1298532 15.438243 19.498785 23.559326 27.21352 32.08091 42.637146"
                 y="0"
                 sodipodi:role="line"
                 id="tspan305">Full INT</tspan></text>
          </g>
        </g>
      </g>
      <g
         id="g309">
        <g
           id="g311"
           clip-path="url(#clipPath315)">
          <g
             id="g317"
             transform="matrix(1.057406,0,0,-1.057406,12.00036,300.3521)">
            <text
               transform="translate(333.8353,14.45111)"
               style="font-variant:normal;font-weight:normal;font-size:14.6168px;font-family:'Times New Roman';-inkscape-font-specification:TimesNewRomanPSMT;writing-mode:lr-tb;fill:#000000;fill-opacity:1;fill-rule:nonzero;stroke:none"
               id="text321"><tspan
                 x="0 8.1298532 12.190394 19.498785 25.985712 33.294102"
                 y="0"
                 sodipodi:role="line"
                 id="tspan319">Fixed</tspan></text>
          </g>
          <g
             id="g323"
             transform="matrix(1.057406,0,0,-1.057406,12.00036,300.3521)">
            <text
               transform="translate(320.8494,31.07204)"
               style="font-variant:normal;font-weight:normal;font-size:14.6168px;font-family:'Times New Roman';-inkscape-font-specification:TimesNewRomanPSMT;writing-mode:lr-tb;fill:#000000;fill-opacity:1;fill-rule:nonzero;stroke:none"
               id="text327"><tspan
                 x="0 8.9279289 16.236319 21.103706 27.590633 33.279484 40.587875 47.896263 51.956806"
                 y="0"
                 sodipodi:role="line"
                 id="tspan325">Threshold</tspan></text>
          </g>
        </g>
      </g>
      <g
         id="g329">
        <g
           id="g331"
           clip-path="url(#clipPath335)">
          <g
             id="g337"
             transform="matrix(1.057407,0,0,-1.057407,12.00006,300.3522)">
            <text
               transform="translate(444.1234,14.45111)"
               style="font-variant:normal;font-weight:normal;font-size:14.6168px;font-family:'Times New Roman';-inkscape-font-specification:TimesNewRomanPSMT;writing-mode:lr-tb;fill:#000000;fill-opacity:1;fill-rule:nonzero;stroke:none"
               id="text341"><tspan
                 x="0 10.556238 17.864628 22.732016"
                 y="0"
                 sodipodi:role="line"
                 id="tspan339">Our</tspan></text>
          </g>
          <g
             id="g343"
             transform="matrix(1.057407,0,0,-1.057407,12.00006,300.3522)">
            <text
               transform="translate(426.6732,31.07204)"
               style="font-variant:normal;font-weight:normal;font-size:14.6168px;font-family:'Times New Roman';-inkscape-font-specification:TimesNewRomanPSMT;writing-mode:lr-tb;fill:#000000;fill-opacity:1;fill-rule:nonzero;stroke:none"
               id="text347"><tspan
                 x="0 10.556238 17.864628 25.173019 30.040407 37.348797 43.835724 50.322651"
                 y="0"
                 sodipodi:role="line"
                 id="tspan345">Approach</tspan></text>
          </g>
        </g>
      </g>
    </g>
  </g>
</svg>
